<mxfile host="Electron" agent="Mozilla/5.0 (Windows NT 10.0; Win64; x64) AppleWebKit/537.36 (KHTML, like Gecko) draw.io/24.7.17 Chrome/128.0.6613.36 Electron/32.0.1 Safari/537.36" version="24.7.17">
  <diagram name="ページ1" id="nJHiq3Iy0ntG3QCh4-Dz">
    <mxGraphModel dx="1013" dy="785" grid="1" gridSize="10" guides="1" tooltips="1" connect="1" arrows="1" fold="1" page="1" pageScale="1" pageWidth="827" pageHeight="1169" math="0" shadow="0">
      <root>
        <mxCell id="0" />
        <mxCell id="1" parent="0" />
        <mxCell id="UHSQHmM_2WP3GbbXP1B8-6" value="" style="rounded=0;whiteSpace=wrap;html=1;" vertex="1" parent="1">
          <mxGeometry x="60" y="60" width="580" height="320" as="geometry" />
        </mxCell>
        <mxCell id="UHSQHmM_2WP3GbbXP1B8-2" value="" style="rounded=0;whiteSpace=wrap;html=1;" vertex="1" parent="1">
          <mxGeometry x="440" y="160" width="140" height="200" as="geometry" />
        </mxCell>
        <mxCell id="UHSQHmM_2WP3GbbXP1B8-3" value="メインプロセス&lt;div&gt;src/main&lt;br&gt;&lt;/div&gt;" style="rounded=0;whiteSpace=wrap;html=1;" vertex="1" parent="1">
          <mxGeometry x="440" y="160" width="140" height="40" as="geometry" />
        </mxCell>
        <mxCell id="UHSQHmM_2WP3GbbXP1B8-4" value="フロントエンド側" style="rounded=1;whiteSpace=wrap;html=1;" vertex="1" parent="1">
          <mxGeometry x="80" y="110" width="140" height="30" as="geometry" />
        </mxCell>
        <mxCell id="UHSQHmM_2WP3GbbXP1B8-5" value="サーバー側" style="rounded=1;whiteSpace=wrap;html=1;" vertex="1" parent="1">
          <mxGeometry x="440" y="110" width="140" height="30" as="geometry" />
        </mxCell>
        <mxCell id="UHSQHmM_2WP3GbbXP1B8-9" value="SQLite" style="rounded=0;whiteSpace=wrap;html=1;" vertex="1" parent="1">
          <mxGeometry x="450" y="210" width="120" height="30" as="geometry" />
        </mxCell>
        <mxCell id="UHSQHmM_2WP3GbbXP1B8-10" value="" style="endArrow=classic;html=1;rounded=0;entryX=0;entryY=0.5;entryDx=0;entryDy=0;exitX=1;exitY=0.325;exitDx=0;exitDy=0;exitPerimeter=0;" edge="1" parent="1" source="5A1NIxjbeco5ptnxJvro-1" target="UHSQHmM_2WP3GbbXP1B8-9">
          <mxGeometry width="50" height="50" relative="1" as="geometry">
            <mxPoint x="220" y="220" as="sourcePoint" />
            <mxPoint x="270" y="170" as="targetPoint" />
          </mxGeometry>
        </mxCell>
        <mxCell id="UHSQHmM_2WP3GbbXP1B8-7" value="electron" style="rounded=0;whiteSpace=wrap;html=1;strokeColor=none;" vertex="1" parent="1">
          <mxGeometry x="270" y="60" width="140" height="30" as="geometry" />
        </mxCell>
        <mxCell id="UHSQHmM_2WP3GbbXP1B8-11" value="" style="shape=cross;whiteSpace=wrap;html=1;rotation=-45;size=0.12374368670764539;fillColor=#3333FF;strokeColor=none;" vertex="1" parent="1">
          <mxGeometry x="316" y="207" width="33.54" height="35.61" as="geometry" />
        </mxCell>
        <mxCell id="UHSQHmM_2WP3GbbXP1B8-12" value="プリロード&lt;div&gt;src/main/preload.ts&lt;/div&gt;" style="rounded=0;whiteSpace=wrap;html=1;" vertex="1" parent="1">
          <mxGeometry x="272.77" y="280" width="120" height="40" as="geometry" />
        </mxCell>
        <mxCell id="UHSQHmM_2WP3GbbXP1B8-14" value="" style="endArrow=classic;html=1;rounded=0;" edge="1" parent="1">
          <mxGeometry width="50" height="50" relative="1" as="geometry">
            <mxPoint x="192.77" y="299.5" as="sourcePoint" />
            <mxPoint x="272.77" y="299.5" as="targetPoint" />
          </mxGeometry>
        </mxCell>
        <mxCell id="UHSQHmM_2WP3GbbXP1B8-19" value="" style="edgeStyle=segmentEdgeStyle;endArrow=classic;html=1;curved=0;rounded=0;endSize=8;startSize=8;entryX=0.5;entryY=1;entryDx=0;entryDy=0;" edge="1" parent="1" target="UHSQHmM_2WP3GbbXP1B8-9">
          <mxGeometry width="50" height="50" relative="1" as="geometry">
            <mxPoint x="392.77" y="300" as="sourcePoint" />
            <mxPoint x="442.77" y="250" as="targetPoint" />
            <Array as="points">
              <mxPoint x="510" y="300" />
            </Array>
          </mxGeometry>
        </mxCell>
        <mxCell id="5A1NIxjbeco5ptnxJvro-1" value="" style="rounded=0;whiteSpace=wrap;html=1;" parent="1" vertex="1">
          <mxGeometry x="80" y="160" width="140" height="200" as="geometry" />
        </mxCell>
        <mxCell id="UHSQHmM_2WP3GbbXP1B8-1" value="レンダラープロセス&lt;div&gt;src/renderer/&lt;/div&gt;" style="rounded=0;whiteSpace=wrap;html=1;" vertex="1" parent="1">
          <mxGeometry x="80" y="160" width="140" height="40" as="geometry" />
        </mxCell>
        <mxCell id="UHSQHmM_2WP3GbbXP1B8-22" value="" style="ellipse;whiteSpace=wrap;html=1;aspect=fixed;fillColor=none;strokeColor=#FF0000;strokeWidth=4;" vertex="1" parent="1">
          <mxGeometry x="450" y="285" width="30" height="30" as="geometry" />
        </mxCell>
      </root>
    </mxGraphModel>
  </diagram>
</mxfile>
